<?xml version="1.0" encoding="UTF-8" standalone="no"?>
<!DOCTYPE svg PUBLIC "-//W3C//DTD SVG 1.1//EN" "http://www.w3.org/Graphics/SVG/1.1/DTD/svg11.dtd">
<svg width="100%" height="100%" viewBox="0 0 1084 867" version="1.1" xmlns="http://www.w3.org/2000/svg" xmlns:xlink="http://www.w3.org/1999/xlink" xml:space="preserve" xmlns:serif="http://www.serif.com/" style="fill-rule:evenodd;clip-rule:evenodd;">
    <g transform="matrix(1,0,0,1,-12.428,-94.3917)">
        <g id="EasyToUse">
            <g transform="matrix(2.23823,-0.970342,0.970342,2.23823,-426.431,106.559)">
                <path d="M264.799,109.363l6.455,29.22c16.354,6.238 30.759,16.704 41.746,30.33l29.785,-2.89c10.116,16.625 16.21,35.382 17.798,54.778l-25.795,15.169c-0.879,17.481 -6.382,34.416 -15.946,49.076l11.953,27.433c-12.685,14.759 -28.641,26.351 -46.597,33.855l-22.397,-19.845c-16.898,4.565 -34.704,4.565 -51.602,-0l-22.397,19.845c-17.956,-7.504 -33.912,-19.096 -46.597,-33.855l11.953,-27.433c-9.564,-14.66 -15.067,-31.595 -15.946,-49.076l-25.795,-15.169c1.588,-19.396 7.682,-38.153 17.798,-54.778l29.785,2.89c10.987,-13.626 25.392,-24.092 41.746,-30.33l6.455,-29.22c18.938,-4.484 38.66,-4.484 57.598,-0Zm-28.799,111.602c5.538,0 10.035,4.497 10.035,10.035c-0,5.538 -4.497,10.035 -10.035,10.035c-5.538,-0 -10.035,-4.497 -10.035,-10.035c0,-5.538 4.497,-10.035 10.035,-10.035Z" style="fill:rgb(218,200,255);"/>
            </g>
            <g transform="matrix(2.19571,-1.04569,1.04569,2.19571,42.3929,396.112)">
                <path d="M264.799,109.363l6.455,29.22c16.354,6.238 30.759,16.704 41.746,30.33l29.785,-2.89c10.116,16.625 16.21,35.382 17.798,54.778l-25.795,15.169c-0.879,17.481 -6.382,34.416 -15.946,49.076l11.953,27.433c-12.685,14.759 -28.641,26.351 -46.597,33.855l-22.397,-19.845c-16.898,4.565 -34.704,4.565 -51.602,-0l-22.397,19.845c-17.956,-7.504 -33.912,-19.096 -46.597,-33.855l11.953,-27.433c-9.564,-14.66 -15.067,-31.595 -15.946,-49.076l-25.795,-15.169c1.588,-19.396 7.682,-38.153 17.798,-54.778l29.785,2.89c10.987,-13.626 25.392,-24.092 41.746,-30.33l6.455,-29.22c18.938,-4.484 38.66,-4.484 57.598,-0Zm-28.799,111.602c5.538,0 10.035,4.497 10.035,10.035c-0,5.538 -4.497,10.035 -10.035,10.035c-5.538,-0 -10.035,-4.497 -10.035,-10.035c0,-5.538 4.497,-10.035 10.035,-10.035Z" style="fill:rgb(218,200,255);"/>
            </g>
            <g id="Easy-To-Use" serif:id="Easy To Use">
                <g transform="matrix(1.57751,0,0,1.57751,21,462.702)">
                    <g transform="matrix(0.7375,0,0,1,0,0)">
                        <path d="M320,48c0,26.492 -29.163,48 -65.085,48l-189.83,0c-35.922,0 -65.085,-21.508 -65.085,-48c0,-26.492 29.163,-48 65.085,-48l189.83,0c35.922,0 65.085,21.508 65.085,48Z" style="fill:rgb(247,248,255);stroke:rgb(151,119,234);stroke-width:3px;"/>
                    </g>
                    <g transform="matrix(2.71173,0,0,2.71173,118.413,66.5415)">
                        <g transform="matrix(18,0,0,18,19.7095,0)">
                        </g>
                        <text x="-19.709px" y="0px" style="font-family:'ComicSansMS-Bold', 'Comic Sans MS', cursive;font-weight:700;font-size:18px;fill:rgb(151,119,234);">RUN</text>
                    </g>
                </g>
                <g transform="matrix(1.57751,0,0,1.57751,-269.261,207.146)">
                    <path d="M413,184.5c100,-40 129,-63.5 229,-63.5" style="fill:none;fill-rule:nonzero;stroke:rgb(151,119,234);stroke-width:3px;"/>
                </g>
                <g transform="matrix(1.57751,0,0,1.57751,-269.261,207.146)">
                    <path d="M420,210l222,-0" style="fill:none;fill-rule:nonzero;stroke:rgb(151,119,234);stroke-width:3px;"/>
                </g>
                <g transform="matrix(1.57751,0,0,1.57751,-269.261,207.146)">
                    <path d="M411,238.5c100,40 131,62.5 231,62.5" style="fill:none;fill-rule:nonzero;stroke:rgb(151,119,234);stroke-width:3px;"/>
                </g>
                <g transform="matrix(1.57751,0,0,1.57751,743.498,319.149)">
                    <g opacity="0.9">
                        <path d="M200,20.285l0,59.43c0,11.196 -9.089,20.285 -20.285,20.285l-159.43,0c-11.196,0 -20.285,-9.089 -20.285,-20.285l0,-59.43c0,-11.196 9.089,-20.285 20.285,-20.285l159.43,-0c11.196,-0 20.285,9.089 20.285,20.285Z" style="fill:white;stroke:rgb(229,231,235);stroke-width:1px;"/>
                        <g id="check" transform="matrix(1,0,0,1,36,32)">
                            <circle cx="0" cy="0" r="14" style="fill:rgb(236,253,245);stroke:rgb(16,185,129);stroke-width:2px;"/>
                            <path d="M-6,1l5,6l10,-13" style="fill:none;fill-rule:nonzero;stroke:rgb(16,185,129);stroke-width:3px;stroke-linecap:round;stroke-linejoin:round;"/>
                        </g>
                        <path d="M172,34c0,3.311 -2.689,6 -6,6l-88,0c-3.311,0 -6,-2.689 -6,-6c0,-3.311 2.689,-6 6,-6l88,0c3.311,0 6,2.689 6,6Z" style="fill:rgb(234,236,239);"/>
                        <path d="M152,55c0,2.76 -2.24,5 -5,5l-70,0c-2.76,0 -5,-2.24 -5,-5c0,-2.76 2.24,-5 5,-5l70,0c2.76,0 5,2.24 5,5Z" style="fill:rgb(241,243,245);"/>
                    </g>
                </g>
                <g transform="matrix(1.57751,0,0,1.57751,743.498,461.125)">
                    <g opacity="0.9">
                        <path d="M200,20.285l0,59.43c0,11.196 -9.089,20.285 -20.285,20.285l-159.43,0c-11.196,0 -20.285,-9.089 -20.285,-20.285l0,-59.43c0,-11.196 9.089,-20.285 20.285,-20.285l159.43,-0c11.196,-0 20.285,9.089 20.285,20.285Z" style="fill:white;stroke:rgb(229,231,235);stroke-width:1px;"/>
                        <g id="check1" serif:id="check" transform="matrix(1,0,0,1,36,32)">
                            <circle cx="0" cy="0" r="14" style="fill:rgb(236,253,245);stroke:rgb(16,185,129);stroke-width:2px;"/>
                            <path d="M-6,1l5,6l10,-13" style="fill:none;fill-rule:nonzero;stroke:rgb(16,185,129);stroke-width:3px;stroke-linecap:round;stroke-linejoin:round;"/>
                        </g>
                        <path d="M182,34c0,3.311 -2.689,6 -6,6l-98,0c-3.311,0 -6,-2.689 -6,-6c0,-3.311 2.689,-6 6,-6l98,0c3.311,0 6,2.689 6,6Z" style="fill:rgb(234,236,239);"/>
                        <path d="M162,55c0,2.76 -2.24,5 -5,5l-80,0c-2.76,0 -5,-2.24 -5,-5c0,-2.76 2.24,-5 5,-5l80,0c2.76,0 5,2.24 5,5Z" style="fill:rgb(241,243,245);"/>
                    </g>
                </g>
                <g transform="matrix(1.57751,0,0,1.57751,743.498,603.1)">
                    <g opacity="0.9">
                        <path d="M200,20.285l0,59.43c0,11.196 -9.089,20.285 -20.285,20.285l-159.43,0c-11.196,0 -20.285,-9.089 -20.285,-20.285l0,-59.43c0,-11.196 9.089,-20.285 20.285,-20.285l159.43,-0c11.196,-0 20.285,9.089 20.285,20.285Z" style="fill:white;stroke:rgb(229,231,235);stroke-width:1px;"/>
                        <g id="check2" serif:id="check" transform="matrix(1,0,0,1,36,32)">
                            <circle cx="0" cy="0" r="14" style="fill:rgb(236,253,245);stroke:rgb(16,185,129);stroke-width:2px;"/>
                            <path d="M-6,1l5,6l10,-13" style="fill:none;fill-rule:nonzero;stroke:rgb(16,185,129);stroke-width:3px;stroke-linecap:round;stroke-linejoin:round;"/>
                        </g>
                        <path d="M192,34c0,3.311 -2.689,6 -6,6l-108,0c-3.311,0 -6,-2.689 -6,-6c0,-3.311 2.689,-6 6,-6l108,0c3.311,0 6,2.689 6,6Z" style="fill:rgb(234,236,239);"/>
                        <path d="M142,55c0,2.76 -2.24,5 -5,5l-60,0c-2.76,0 -5,-2.24 -5,-5c0,-2.76 2.24,-5 5,-5l60,0c2.76,0 5,2.24 5,5Z" style="fill:rgb(241,243,245);"/>
                    </g>
                </g>
                <g transform="matrix(0.280913,0,0,0.280913,128.577,415.901)">
                    <path d="M446,987c10.429,1.722 21.676,-7.143 28.089,-22.769l65.911,-149.231l155.707,-71.316c15.275,-8.034 19.315,-12.463 19.293,-23.684c-0.01,-5.037 -3.528,-11.839 -11.109,-16.676c-9.312,-5.942 -24.244,-9.938 -40.116,-16.487c-42.758,-17.643 -104.418,-38.101 -166.775,-62.612c-49.822,-19.584 -101.203,-39.159 -138.758,-54.622c-36.909,-15.198 -59.11,-25.325 -71.242,-14.603c-2.919,2.58 -11.184,9.68 -5.17,27.418c9.977,29.43 33.396,81.384 55.645,141.711c19.101,51.794 75.445,195.169 81.366,212.648c5.845,17.254 15.574,48.311 27.159,50.223Z" style="stroke:white;stroke-width:14.24px;stroke-linecap:round;stroke-linejoin:round;stroke-miterlimit:1.5;"/>
                </g>
            </g>
        </g>
    </g>
</svg>
