<?xml version="1.0" encoding="UTF-8" standalone="no"?>
<!DOCTYPE svg PUBLIC "-//W3C//DTD SVG 1.1//EN" "http://www.w3.org/Graphics/SVG/1.1/DTD/svg11.dtd">
<svg width="100%" height="100%" viewBox="0 0 600 600" version="1.1" xmlns="http://www.w3.org/2000/svg" xmlns:xlink="http://www.w3.org/1999/xlink" xml:space="preserve" xmlns:serif="http://www.serif.com/" style="fill-rule:evenodd;clip-rule:evenodd;stroke-linejoin:round;stroke-miterlimit:2;">
    <g id="FINAL" transform="matrix(1,0,0,1,27.6676,0)">
        <path d="M299.5,96.335L299.457,96.378L256.778,53.699C248.925,45.845 236.173,45.845 228.319,53.699L199.861,82.157C192.008,90.01 192.008,102.762 199.861,110.616L242.54,153.295L159.752,236.083L117.063,193.394C109.21,185.541 96.458,185.541 88.605,193.394L60.146,221.852C52.293,229.706 52.293,242.457 60.146,250.311L102.835,293L60.147,335.687C52.294,343.541 52.294,356.292 60.147,364.146L88.606,392.604C96.459,400.457 109.211,400.457 117.064,392.604L159.752,349.917L242.54,432.705L199.852,475.392C191.999,483.246 191.999,495.997 199.852,503.851L228.311,532.309C236.164,540.163 248.916,540.163 256.769,532.309L299.457,489.622L299.5,489.665L299.5,599C134.201,599 0,464.799 0,299.5C0,134.201 134.201,0 299.5,0L299.5,96.335ZM299.5,96.335L299.5,210.255L382.245,293L299.5,375.745L299.5,489.665L342.143,532.308C349.997,540.161 362.748,540.161 370.602,532.308L399.06,503.849C406.914,495.996 406.914,483.244 399.06,475.391L356.374,432.705L439.162,349.917L481.858,392.613C489.712,400.466 502.463,400.466 510.317,392.613L538.775,364.154C546.628,356.301 546.628,343.549 538.775,335.696L496.079,293L538.767,250.312C546.62,242.459 546.62,229.707 538.767,221.854L510.308,193.395C502.455,185.542 489.703,185.542 481.85,193.395L439.162,236.083L356.374,153.295L399.061,110.607C406.915,102.754 406.915,90.002 399.061,82.148L370.603,53.69C362.75,45.837 349.998,45.837 342.145,53.69L299.5,96.335ZM299.5,210.255L299.457,210.211L216.669,293L299.457,375.788L299.5,375.745L299.5,210.255Z" style="fill:rgb(151,119,234);"/>
    </g>
</svg>
