<?xml version="1.0" encoding="UTF-8" standalone="no"?>
<!DOCTYPE svg PUBLIC "-//W3C//DTD SVG 1.1//EN" "http://www.w3.org/Graphics/SVG/1.1/DTD/svg11.dtd">
<svg width="100%" height="100%" viewBox="0 0 872 560" version="1.1" xmlns="http://www.w3.org/2000/svg" xmlns:xlink="http://www.w3.org/1999/xlink" xml:space="preserve" xmlns:serif="http://www.serif.com/" style="fill-rule:evenodd;clip-rule:evenodd;stroke-linejoin:round;stroke-miterlimit:2;">
    <g transform="matrix(1,0,0,1,-104.223,-260.289)">
        <g id="_06" serif:id="06" transform="matrix(0.72535,0,0,0.72535,104.223,483.149)">
            <g id="Speed">
                <g id="_061" serif:id="06">
                    <g transform="matrix(1.66217,0,0,1.66217,0,-307.246)">
                        <g transform="matrix(1.67336,0,0,1,5.68434e-14,0)">
                            <rect x="0" y="64" width="432" height="368" style="fill:rgb(37,37,37);"/>
                        </g>
                        <g transform="matrix(1.67336,0,0,1,5.68434e-14,-1.13687e-13)">
                            <path d="M432,16c0,-8.797 -7.203,-16 -16,-16l-400,0c-8.797,0 -16,7.203 -16,16l0,48l432,0l0,-48Z" style="fill:rgb(84,84,84);fill-rule:nonzero;"/>
                        </g>
                        <g transform="matrix(1.67336,0,0,1,5.68434e-14,0)">
                            <path d="M0,448c0,8.797 7.203,16 16,16l400,0c8.797,0 16,-7.203 16,-16l0,-16l-432,0l0,16Z" style="fill:rgb(67,67,67);fill-rule:nonzero;"/>
                        </g>
                        <g transform="matrix(1,0,0,1,539.795,0)">
                            <circle cx="96" cy="32" r="16" style="fill:rgb(255,191,92);"/>
                        </g>
                        <g transform="matrix(1,0,0,1,539.795,0)">
                            <circle cx="144" cy="32" r="16" style="fill:rgb(240,95,80);"/>
                        </g>
                    </g>
                    <g transform="matrix(0.343604,0.0434883,-0.0523426,0.413562,401.575,-194.911)">
                        <path d="M739.074,119.48c0.493,-4.673 -3.071,-8.98 -8.499,-10.272c-5.427,-1.292 -11.196,0.794 -13.756,4.975c-78.591,128.349 -301.267,492.004 -349.787,571.242c-1.923,3.141 -1.668,6.899 0.669,9.84c2.337,2.941 6.395,4.612 10.627,4.377c60.447,-3.358 235.636,-13.091 287.088,-15.95c3.527,-0.196 6.974,0.933 9.391,3.077c2.417,2.143 3.549,5.074 3.084,7.986c-8.297,51.986 -41.768,261.709 -58.211,364.736c-0.757,4.741 2.718,9.243 8.22,10.65c5.502,1.407 11.423,-0.692 14.006,-4.966c80.089,-132.511 288.709,-477.684 334.365,-553.224c1.868,-3.09 1.636,-6.769 -0.608,-9.68c-2.245,-2.912 -6.17,-4.625 -10.329,-4.507c-54.873,1.549 -207.591,5.859 -253.637,7.159c-3.374,0.095 -6.635,-1.016 -8.958,-3.051c-2.322,-2.036 -3.483,-4.801 -3.189,-7.595c5.477,-51.93 28.882,-273.878 39.524,-374.797Z" style="fill:rgb(255,231,33);"/>
                    </g>
                    <g transform="matrix(1.45068,0,0,1.59746,-171.857,-561.62)">
                        <path d="M328.467,295.153l-0,13.429c-0,3.705 -3.313,6.714 -7.394,6.714l-166.048,-0c-4.081,-0 -7.394,-3.009 -7.394,-6.714l0,-13.429c0,-3.705 3.313,-6.714 7.394,-6.714l166.048,0c4.081,0 7.394,3.009 7.394,6.714Z" style="fill:rgb(255,211,44);fill-opacity:0.29;"/>
                    </g>
                    <g transform="matrix(1.60593,0,0,1.59746,-194.776,-502.921)">
                        <path d="M328.467,295.153l-0,13.429c-0,3.705 -2.993,6.714 -6.679,6.714l-167.478,-0c-3.686,-0 -6.679,-3.009 -6.679,-6.714l0,-13.429c0,-3.705 2.993,-6.714 6.679,-6.714l167.478,0c3.686,0 6.679,3.009 6.679,6.714Z" style="fill:rgb(151,119,234);fill-opacity:0.29;"/>
                    </g>
                    <g transform="matrix(2.27629,0,0,1.59746,-293.742,-435.29)">
                        <path d="M328.467,295.153l-0,13.429c-0,3.705 -2.112,6.714 -4.712,6.714l-171.412,-0c-2.6,-0 -4.712,-3.009 -4.712,-6.714l0,-13.429c0,-3.705 2.112,-6.714 4.712,-6.714l171.412,0c2.6,0 4.712,3.009 4.712,6.714Z" style="fill:rgb(111,185,255);fill-opacity:0.29;"/>
                    </g>
                    <g transform="matrix(0.596851,0,0,1.59746,-45.8042,-372.184)">
                        <path d="M328.467,295.153l-0,13.429c-0,3.705 -8.052,6.714 -17.971,6.714l-144.894,-0c-9.918,-0 -17.971,-3.009 -17.971,-6.714l0,-13.429c0,-3.705 8.053,-6.714 17.971,-6.714l144.894,0c9.919,0 17.971,3.009 17.971,6.714Z" style="fill:rgb(202,36,209);fill-opacity:0.29;"/>
                    </g>
                    <g transform="matrix(1.8529,0,0,1.59746,-231.237,-622.871)">
                        <path d="M328.467,295.153l-0,13.429c-0,3.705 -2.594,6.714 -5.789,6.714l-169.258,-0c-3.195,-0 -5.789,-3.009 -5.789,-6.714l0,-13.429c0,-3.705 2.594,-6.714 5.789,-6.714l169.258,0c3.195,0 5.789,3.009 5.789,6.714Z" style="fill:rgb(151,119,234);fill-opacity:0.29;"/>
                    </g>
                </g>
            </g>
        </g>
    </g>
</svg>
